# xmcd
#
# Track frame offsets:
#	150
#	9272
#	19465
#	39770
#	63264
#	84063
#	110600
#	129959
#	155385
#	176066
#	199136
#	220738
#	243359
#	264458
#	287828
#	311672
#
# Disc length: 4352 seconds
#
# Revision: 5
# Processed by: cddbd v1.5.2PL0 Copyright (c) Steve Scherf et al.
# Submitted via: EasyCDDAExtractor 10.5.1.1
#
DISCID=cf10fe10
DTITLE=Facção Central - A Marcha Funebre Prossegue
DYEAR=1900
DGENRE=RAP
TTITLE0=Introducao
TTITLE1=Dia Comum
TTITLE2=A Guerra Nao Vai Acabar
TTITLE3=A Marcha Funebre Prossegue
TTITLE4=Aqui Sao Teus Caes
TTITLE5=Desculpa Mae
TTITLE6=Sei Que Os Porcos Querem Meu Caixao
TTITLE7=O Show Comeca Agora
TTITLE8=Tensao
TTITLE9=De Encontro A Morte
TTITLE10=Eu To Fazendo O Que O Sistema Quer
TTITLE11=Dircurso Ou Revolver
TTITLE12=Sem Luz No Fim Do Tunel
TTITLE13=Apologia Ao Crime
TTITLE14=Justica Com As Proprias Maos
TTITLE15=A Paz Esta Morta
EXTD=
EXTT0=
EXTT1=
EXTT2=
EXTT3=
EXTT4=
EXTT5=
EXTT6=
EXTT7=
EXTT8=
EXTT9=
EXTT10=
EXTT11=
EXTT12=
EXTT13=
EXTT14=
EXTT15=
PLAYORDER=
